<svg width="64" height="64" viewBox="0 0 64 64" fill="none" xmlns="http://www.w3.org/2000/svg">
<rect width="64" height="64" fill="white"/>
<path d="M27.5002 42.4998H15.2169L17.1117 47.3108C16.3567 48.6978 14.75 49.315 14.75 49.9997C14.75 50.544 14.5728 52.1331 15.2168 52.5545C15.883 52.9583 15.883 51.6825 18.0592 51.8054C18.0592 51.8054 16.8626 54.9638 16.1643 54.0526C15.7293 53.4852 16.1643 52.2217 16.1643 52.2217L15.2169 51.58C17.1044 51.3167 15.6087 49.9794 16.1639 49.5581C17.2964 48.7153 13.8401 45.0807 15.2169 42.4998C16.5937 39.9189 18.5002 16.25 18.5002 16.25L19.3509 13.25L36.2389 45.7336C37.5047 48.1213 38.6483 49.6751 39.6698 50.395C40.7135 51.0972 42.1572 50.7825 44.0003 50.8703L42.5001 51.4266L33.9116 55.0271V54.0526C35.7103 53.9824 36.9206 53.7454 37.5423 53.3416C38.1863 52.9378 34.1663 55.3811 34.1663 54.8017C34.1663 54.0292 30.332 47.4015 29.4437 45.7336L27.5002 42.4998ZM25.7796 38.6494L18.1184 24.2176L16.1643 38.6494H25.7796Z" fill="#858585"/>
<path d="M8.00034 55.9997L8 54.4997H9.49999C11.5156 54.4997 12.9691 54.0544 13.8128 52.7653C14.3284 51.9919 14.5862 50.2575 14.5862 47.5622V16.7656C14.5862 13.789 14.2581 11.9258 13.6019 11.1758C12.6878 10.1445 11.3284 9.62889 9.52376 9.62889H8.00034V8H27.5002C34.6252 8 39.6759 9.13671 43.379 10.7539C47.1055 12.3711 50 14.7265 52.25 18.4999C54.5234 22.2733 56 27.0546 56 31.9998C56 38.6326 54.0313 44.0466 50 48.4997C45.4766 53.4684 41.2576 55.9997 31.9998 55.9997H8.00034ZM21.3362 52.5544C24.3127 53.2106 26.8088 53.5387 28.8244 53.5387C34.2619 53.5387 38.7736 51.6286 42.3595 47.8083C45.9454 43.988 47.7383 38.8084 47.7383 32.2694C47.7383 25.6835 45.9454 20.4921 42.3595 16.6953C38.7736 12.8984 34.1681 11 28.5432 11C26.4338 11 24.0315 11.3398 21.3362 12.0195V52.5544Z" fill="black"/>
</svg>
