<svg width="64" height="64" viewBox="0 0 64 64" fill="none" xmlns="http://www.w3.org/2000/svg">
<rect width="64" height="64" fill="white"/>
<path d="M29.0002 39H20.8112L22.0745 42.2074C21.5711 43.132 20.5 43.5435 20.5 44C20.5 44.3628 20.3819 45.4222 20.8112 45.7032C21.2553 45.9724 21.2553 45.1218 22.7062 45.2038C22.7062 45.2038 21.9084 47.3094 21.4428 46.702C21.1529 46.3236 21.4428 45.4813 21.4428 45.4813L20.8112 45.0535C22.0696 44.878 21.0725 43.9865 21.4426 43.7056C22.1976 43.1437 19.8934 40.7206 20.8112 39C21.7291 37.2794 23.0002 21.5 23.0002 21.5L23.5673 19.5L34.826 41.1559C35.6699 42.7477 36.4323 43.7836 37.1133 44.2635C37.8091 44.7317 38.7716 44.5219 40.0003 44.5804L39.0002 44.9512L33.2745 47.3516V46.702C34.4736 46.6551 35.2805 46.4971 35.695 46.2279C36.1243 45.9587 33.4443 47.5876 33.4443 47.2014C33.4443 46.6863 30.8881 42.2678 30.2959 41.1559L29.0002 39ZM27.8532 36.433L22.7456 26.8118L21.4428 36.433H27.8532Z" fill="#858585"/>
<path d="M16.0002 48L16 47H17C18.3438 47 19.3127 46.7031 19.8752 45.8438C20.219 45.3281 20.3909 44.1719 20.3909 42.375V21.8438C20.3909 19.8594 20.1721 18.6172 19.7346 18.1172C19.1252 17.4297 18.219 17.0859 17.0158 17.0859H16.0002V16H29.0002C33.7502 16 37.1174 16.7578 39.5862 17.8359C42.0705 18.9141 44.0002 20.4844 45.5002 23C47.0159 25.5156 48.0002 28.7031 48.0002 32C48.0002 36.4219 46.6877 40.0312 44.0002 43C40.9846 46.3125 38.1719 48 32 48H16.0002ZM24.8909 45.7031C26.8752 46.1406 28.5393 46.3594 29.883 46.3594C33.508 46.3594 36.5159 45.0859 38.9065 42.5391C41.2971 39.9922 42.4924 36.5391 42.4924 32.1797C42.4924 27.7891 41.2971 24.3281 38.9065 21.7969C36.5159 19.2656 33.4455 18 29.6955 18C28.2893 18 26.6877 18.2266 24.8909 18.6797V45.7031Z" fill="black"/>
<path d="M20.7451 55.6699H19.207L18.9375 56.2969C18.8711 56.4512 18.8379 56.5664 18.8379 56.6426C18.8379 56.7031 18.8662 56.7568 18.9229 56.8037C18.9814 56.8486 19.1064 56.8779 19.2979 56.8916V57H18.0469V56.8916C18.2129 56.8623 18.3203 56.8242 18.3691 56.7773C18.4688 56.6836 18.5791 56.4932 18.7002 56.2061L20.0977 52.9365H20.2002L21.583 56.2412C21.6943 56.5068 21.7949 56.6797 21.8848 56.7598C21.9766 56.8379 22.1035 56.8818 22.2656 56.8916V57H20.6982V56.8916C20.8564 56.8838 20.9629 56.8574 21.0176 56.8125C21.0742 56.7676 21.1025 56.7129 21.1025 56.6484C21.1025 56.5625 21.0635 56.4268 20.9854 56.2412L20.7451 55.6699ZM20.6631 55.4531L19.9893 53.8477L19.2979 55.4531H20.6631ZM22.3301 54.583L23.1562 54.249H23.2676V54.876C23.4062 54.6396 23.5449 54.4746 23.6836 54.3809C23.8242 54.2852 23.9717 54.2373 24.126 54.2373C24.3955 54.2373 24.6201 54.3428 24.7998 54.5537C25.0205 54.8115 25.1309 55.1475 25.1309 55.5615C25.1309 56.0244 24.998 56.4072 24.7324 56.71C24.5137 56.958 24.2383 57.082 23.9062 57.082C23.7617 57.082 23.6367 57.0615 23.5312 57.0205C23.4531 56.9912 23.3652 56.9326 23.2676 56.8447V57.6621C23.2676 57.8457 23.2783 57.9619 23.2998 58.0107C23.3232 58.0615 23.3623 58.1016 23.417 58.1309C23.4736 58.1602 23.5752 58.1748 23.7217 58.1748V58.2832H22.3154V58.1748H22.3887C22.4961 58.1768 22.5879 58.1562 22.6641 58.1133C22.7012 58.0918 22.7295 58.0566 22.749 58.0078C22.7705 57.9609 22.7812 57.8398 22.7812 57.6445V55.1074C22.7812 54.9336 22.7734 54.8232 22.7578 54.7764C22.7422 54.7295 22.7168 54.6943 22.6816 54.6709C22.6484 54.6475 22.6025 54.6357 22.5439 54.6357C22.4971 54.6357 22.4375 54.6494 22.3652 54.6768L22.3301 54.583ZM23.2676 55.0488V56.0508C23.2676 56.2676 23.2764 56.4102 23.2939 56.4785C23.3213 56.5918 23.3877 56.6914 23.4932 56.7773C23.6006 56.8633 23.7354 56.9062 23.8975 56.9062C24.0928 56.9062 24.251 56.8301 24.3721 56.6777C24.5303 56.4785 24.6094 56.1982 24.6094 55.8369C24.6094 55.4268 24.5195 55.1113 24.3398 54.8906C24.2148 54.7383 24.0664 54.6621 23.8945 54.6621C23.8008 54.6621 23.708 54.6855 23.6162 54.7324C23.5459 54.7676 23.4297 54.873 23.2676 55.0488ZM26.3086 54.2373V54.8408C26.5332 54.4385 26.7637 54.2373 27 54.2373C27.1074 54.2373 27.1963 54.2705 27.2666 54.3369C27.3369 54.4014 27.3721 54.4766 27.3721 54.5625C27.3721 54.6387 27.3467 54.7031 27.2959 54.7559C27.2451 54.8086 27.1846 54.835 27.1143 54.835C27.0459 54.835 26.9688 54.8018 26.8828 54.7354C26.7988 54.667 26.7363 54.6328 26.6953 54.6328C26.6602 54.6328 26.6221 54.6523 26.5811 54.6914C26.4932 54.7715 26.4023 54.9033 26.3086 55.0869V56.373C26.3086 56.5215 26.3271 56.6338 26.3643 56.71C26.3896 56.7627 26.4346 56.8066 26.499 56.8418C26.5635 56.877 26.6562 56.8945 26.7773 56.8945V57H25.4033V56.8945C25.54 56.8945 25.6416 56.873 25.708 56.8301C25.7568 56.7988 25.791 56.749 25.8105 56.6807C25.8203 56.6475 25.8252 56.5527 25.8252 56.3965V55.3564C25.8252 55.0439 25.8184 54.8584 25.8047 54.7998C25.793 54.7393 25.7695 54.6953 25.7344 54.668C25.7012 54.6406 25.6592 54.627 25.6084 54.627C25.5479 54.627 25.4795 54.6416 25.4033 54.6709L25.374 54.5654L26.1855 54.2373H26.3086ZM28.2041 52.834C28.2861 52.834 28.3555 52.8633 28.4121 52.9219C28.4707 52.9785 28.5 53.0479 28.5 53.1299C28.5 53.2119 28.4707 53.2822 28.4121 53.3408C28.3555 53.3994 28.2861 53.4287 28.2041 53.4287C28.1221 53.4287 28.0518 53.3994 27.9932 53.3408C27.9346 53.2822 27.9053 53.2119 27.9053 53.1299C27.9053 53.0479 27.9336 52.9785 27.9902 52.9219C28.0488 52.8633 28.1201 52.834 28.2041 52.834ZM28.4473 54.2373V56.3936C28.4473 56.5615 28.459 56.6738 28.4824 56.7305C28.5078 56.7852 28.5439 56.8262 28.5908 56.8535C28.6396 56.8809 28.7275 56.8945 28.8545 56.8945V57H27.5508V56.8945C27.6816 56.8945 27.7695 56.8818 27.8145 56.8564C27.8594 56.8311 27.8945 56.7891 27.9199 56.7305C27.9473 56.6719 27.9609 56.5596 27.9609 56.3936V55.3594C27.9609 55.0684 27.9521 54.8799 27.9346 54.7939C27.9209 54.7314 27.8994 54.6885 27.8701 54.665C27.8408 54.6396 27.8008 54.627 27.75 54.627C27.6953 54.627 27.6289 54.6416 27.5508 54.6709L27.5098 54.5654L28.3184 54.2373H28.4473ZM30.1143 52.834V56.3936C30.1143 56.5615 30.126 56.6729 30.1494 56.7275C30.1748 56.7822 30.2129 56.8242 30.2637 56.8535C30.3145 56.8809 30.4092 56.8945 30.5479 56.8945V57H29.2324V56.8945C29.3555 56.8945 29.4395 56.8818 29.4844 56.8564C29.5293 56.8311 29.5645 56.7891 29.5898 56.7305C29.6152 56.6719 29.6279 56.5596 29.6279 56.3936V53.9561C29.6279 53.6533 29.6211 53.4678 29.6074 53.3994C29.5938 53.3291 29.5713 53.2812 29.54 53.2559C29.5107 53.2305 29.4727 53.2178 29.4258 53.2178C29.375 53.2178 29.3105 53.2334 29.2324 53.2646L29.1826 53.1621L29.9824 52.834H30.1143ZM33.8818 56.6133C33.6064 56.8262 33.4336 56.9492 33.3633 56.9824C33.2578 57.0312 33.1455 57.0557 33.0264 57.0557C32.8408 57.0557 32.6875 56.9922 32.5664 56.8652C32.4473 56.7383 32.3877 56.5713 32.3877 56.3643C32.3877 56.2334 32.417 56.1201 32.4756 56.0244C32.5557 55.8916 32.6943 55.7666 32.8916 55.6494C33.0908 55.5322 33.4209 55.3896 33.8818 55.2217V55.1162C33.8818 54.8486 33.8389 54.665 33.7529 54.5654C33.6689 54.4658 33.5459 54.416 33.3838 54.416C33.2607 54.416 33.1631 54.4492 33.0908 54.5156C33.0166 54.582 32.9795 54.6582 32.9795 54.7441L32.9854 54.9141C32.9854 55.0039 32.9619 55.0732 32.915 55.1221C32.8701 55.1709 32.8105 55.1953 32.7363 55.1953C32.6641 55.1953 32.6045 55.1699 32.5576 55.1191C32.5127 55.0684 32.4902 54.999 32.4902 54.9111C32.4902 54.7432 32.5762 54.5889 32.748 54.4482C32.9199 54.3076 33.1611 54.2373 33.4717 54.2373C33.71 54.2373 33.9053 54.2773 34.0576 54.3574C34.1729 54.418 34.2578 54.5127 34.3125 54.6416C34.3477 54.7256 34.3652 54.8975 34.3652 55.1572V56.0684C34.3652 56.3242 34.3701 56.4814 34.3799 56.54C34.3896 56.5967 34.4053 56.6348 34.4268 56.6543C34.4502 56.6738 34.4766 56.6836 34.5059 56.6836C34.5371 56.6836 34.5645 56.6768 34.5879 56.6631C34.6289 56.6377 34.708 56.5664 34.8252 56.4492V56.6133C34.6064 56.9062 34.3975 57.0527 34.1982 57.0527C34.1025 57.0527 34.0264 57.0195 33.9697 56.9531C33.9131 56.8867 33.8838 56.7734 33.8818 56.6133ZM33.8818 56.4229V55.4004C33.5869 55.5176 33.3965 55.6006 33.3105 55.6494C33.1562 55.7354 33.0459 55.8252 32.9795 55.9189C32.9131 56.0127 32.8799 56.1152 32.8799 56.2266C32.8799 56.3672 32.9219 56.4844 33.0059 56.5781C33.0898 56.6699 33.1865 56.7158 33.2959 56.7158C33.4443 56.7158 33.6396 56.6182 33.8818 56.4229ZM35.8066 53.4346V54.3164H36.4336V54.5215H35.8066V56.2617C35.8066 56.4355 35.8311 56.5527 35.8799 56.6133C35.9307 56.6738 35.9951 56.7041 36.0732 56.7041C36.1377 56.7041 36.2002 56.6846 36.2607 56.6455C36.3213 56.6045 36.3682 56.5449 36.4014 56.4668H36.5156C36.4473 56.6582 36.3506 56.8027 36.2256 56.9004C36.1006 56.9961 35.9717 57.0439 35.8389 57.0439C35.749 57.0439 35.6611 57.0195 35.5752 56.9707C35.4893 56.9199 35.4258 56.8486 35.3848 56.7568C35.3438 56.6631 35.3232 56.5195 35.3232 56.3262V54.5215H34.8984V54.4248C35.0059 54.3818 35.1152 54.3096 35.2266 54.208C35.3398 54.1045 35.4404 53.9824 35.5283 53.8418C35.5732 53.7676 35.6357 53.6318 35.7158 53.4346H35.8066ZM37.1484 55.3271C37.1465 55.7256 37.2432 56.0381 37.4385 56.2646C37.6338 56.4912 37.8633 56.6045 38.127 56.6045C38.3027 56.6045 38.4551 56.5566 38.584 56.4609C38.7148 56.3633 38.8242 56.1973 38.9121 55.9629L39.0029 56.0215C38.9619 56.2891 38.8428 56.5332 38.6455 56.7539C38.4482 56.9727 38.2012 57.082 37.9043 57.082C37.582 57.082 37.3057 56.957 37.0752 56.707C36.8467 56.4551 36.7324 56.1172 36.7324 55.6934C36.7324 55.2344 36.8496 54.877 37.084 54.6211C37.3203 54.3633 37.6162 54.2344 37.9717 54.2344C38.2725 54.2344 38.5195 54.334 38.7129 54.5332C38.9062 54.7305 39.0029 54.9951 39.0029 55.3271H37.1484ZM37.1484 55.1572H38.3906C38.3809 54.9854 38.3604 54.8643 38.3291 54.7939C38.2803 54.6846 38.207 54.5986 38.1094 54.5361C38.0137 54.4736 37.9131 54.4424 37.8076 54.4424C37.6455 54.4424 37.5 54.5059 37.3711 54.6328C37.2441 54.7578 37.1699 54.9326 37.1484 55.1572ZM40.2861 52.834V56.3936C40.2861 56.5615 40.2979 56.6729 40.3213 56.7275C40.3467 56.7822 40.3848 56.8242 40.4355 56.8535C40.4863 56.8809 40.5811 56.8945 40.7197 56.8945V57H39.4043V56.8945C39.5273 56.8945 39.6113 56.8818 39.6562 56.8564C39.7012 56.8311 39.7363 56.7891 39.7617 56.7305C39.7871 56.6719 39.7998 56.5596 39.7998 56.3936V53.9561C39.7998 53.6533 39.793 53.4678 39.7793 53.3994C39.7656 53.3291 39.7432 53.2812 39.7119 53.2559C39.6826 53.2305 39.6445 53.2178 39.5977 53.2178C39.5469 53.2178 39.4824 53.2334 39.4043 53.2646L39.3545 53.1621L40.1543 52.834H40.2861ZM41.7158 52.834C41.7979 52.834 41.8672 52.8633 41.9238 52.9219C41.9824 52.9785 42.0117 53.0479 42.0117 53.1299C42.0117 53.2119 41.9824 53.2822 41.9238 53.3408C41.8672 53.3994 41.7979 53.4287 41.7158 53.4287C41.6338 53.4287 41.5635 53.3994 41.5049 53.3408C41.4463 53.2822 41.417 53.2119 41.417 53.1299C41.417 53.0479 41.4453 52.9785 41.502 52.9219C41.5605 52.8633 41.6318 52.834 41.7158 52.834ZM41.959 54.2373V56.3936C41.959 56.5615 41.9707 56.6738 41.9941 56.7305C42.0195 56.7852 42.0557 56.8262 42.1025 56.8535C42.1514 56.8809 42.2393 56.8945 42.3662 56.8945V57H41.0625V56.8945C41.1934 56.8945 41.2812 56.8818 41.3262 56.8564C41.3711 56.8311 41.4062 56.7891 41.4316 56.7305C41.459 56.6719 41.4727 56.5596 41.4727 56.3936V55.3594C41.4727 55.0684 41.4639 54.8799 41.4463 54.7939C41.4326 54.7314 41.4111 54.6885 41.3818 54.665C41.3525 54.6396 41.3125 54.627 41.2617 54.627C41.207 54.627 41.1406 54.6416 41.0625 54.6709L41.0215 54.5654L41.8301 54.2373H41.959ZM43.1543 55.3271C43.1523 55.7256 43.249 56.0381 43.4443 56.2646C43.6396 56.4912 43.8691 56.6045 44.1328 56.6045C44.3086 56.6045 44.4609 56.5566 44.5898 56.4609C44.7207 56.3633 44.8301 56.1973 44.918 55.9629L45.0088 56.0215C44.9678 56.2891 44.8486 56.5332 44.6514 56.7539C44.4541 56.9727 44.207 57.082 43.9102 57.082C43.5879 57.082 43.3115 56.957 43.0811 56.707C42.8525 56.4551 42.7383 56.1172 42.7383 55.6934C42.7383 55.2344 42.8555 54.877 43.0898 54.6211C43.3262 54.3633 43.6221 54.2344 43.9775 54.2344C44.2783 54.2344 44.5254 54.334 44.7188 54.5332C44.9121 54.7305 45.0088 54.9951 45.0088 55.3271H43.1543ZM43.1543 55.1572H44.3965C44.3867 54.9854 44.3662 54.8643 44.335 54.7939C44.2861 54.6846 44.2129 54.5986 44.1152 54.5361C44.0195 54.4736 43.9189 54.4424 43.8135 54.4424C43.6514 54.4424 43.5059 54.5059 43.377 54.6328C43.25 54.7578 43.1758 54.9326 43.1543 55.1572ZM46.1543 54.2373V54.8408C46.3789 54.4385 46.6094 54.2373 46.8457 54.2373C46.9531 54.2373 47.042 54.2705 47.1123 54.3369C47.1826 54.4014 47.2178 54.4766 47.2178 54.5625C47.2178 54.6387 47.1924 54.7031 47.1416 54.7559C47.0908 54.8086 47.0303 54.835 46.96 54.835C46.8916 54.835 46.8145 54.8018 46.7285 54.7354C46.6445 54.667 46.582 54.6328 46.541 54.6328C46.5059 54.6328 46.4678 54.6523 46.4268 54.6914C46.3389 54.7715 46.248 54.9033 46.1543 55.0869V56.373C46.1543 56.5215 46.1729 56.6338 46.21 56.71C46.2354 56.7627 46.2803 56.8066 46.3447 56.8418C46.4092 56.877 46.502 56.8945 46.623 56.8945V57H45.249V56.8945C45.3857 56.8945 45.4873 56.873 45.5537 56.8301C45.6025 56.7988 45.6367 56.749 45.6562 56.6807C45.666 56.6475 45.6709 56.5527 45.6709 56.3965V55.3564C45.6709 55.0439 45.6641 54.8584 45.6504 54.7998C45.6387 54.7393 45.6152 54.6953 45.5801 54.668C45.5469 54.6406 45.5049 54.627 45.4541 54.627C45.3936 54.627 45.3252 54.6416 45.249 54.6709L45.2197 54.5654L46.0312 54.2373H46.1543Z" fill="black"/>
<path d="M24.8081 59.0137V59.0679C24.7563 59.0679 24.7144 59.0771 24.6821 59.0957C24.6499 59.1143 24.6191 59.1489 24.5898 59.1997C24.5703 59.2339 24.5396 59.3154 24.4976 59.4443L23.9438 61.0454H23.8853L23.4326 59.7754L22.9829 61.0454H22.9302L22.3398 59.396C22.2959 59.2729 22.2681 59.2002 22.2563 59.1777C22.2368 59.1406 22.21 59.1133 22.1758 59.0957C22.1426 59.0771 22.0972 59.0679 22.0396 59.0679V59.0137H22.7749V59.0679H22.7397C22.688 59.0679 22.6484 59.0796 22.6211 59.103C22.5938 59.1265 22.5801 59.1548 22.5801 59.188C22.5801 59.2222 22.6016 59.3008 22.6445 59.4238L23.0356 60.5386L23.3652 59.5908L23.3066 59.4238L23.2598 59.2905C23.2393 59.2417 23.2163 59.1987 23.1909 59.1616C23.1782 59.1431 23.1626 59.1274 23.144 59.1147C23.1196 59.0972 23.0952 59.0845 23.0708 59.0767C23.0522 59.0708 23.0229 59.0679 22.9829 59.0679V59.0137H23.7563V59.0679H23.7036C23.6489 59.0679 23.6089 59.0796 23.5835 59.103C23.5581 59.1265 23.5454 59.1582 23.5454 59.1982C23.5454 59.248 23.5674 59.335 23.6113 59.459L23.9922 60.5386L24.3701 59.4443C24.4131 59.3232 24.4346 59.2393 24.4346 59.1924C24.4346 59.1699 24.4272 59.1489 24.4126 59.1294C24.3989 59.1099 24.3813 59.0962 24.3599 59.0884C24.3228 59.0747 24.2744 59.0679 24.2148 59.0679V59.0137H24.8081ZM24.9121 60.1636C24.9111 60.3628 24.9595 60.519 25.0571 60.6323C25.1548 60.7456 25.2695 60.8022 25.4014 60.8022C25.4893 60.8022 25.5654 60.7783 25.6299 60.7305C25.6953 60.6816 25.75 60.5986 25.7939 60.4814L25.8394 60.5107C25.8188 60.6445 25.7593 60.7666 25.6606 60.877C25.562 60.9863 25.4385 61.041 25.29 61.041C25.1289 61.041 24.9907 60.9785 24.8755 60.8535C24.7612 60.7275 24.7041 60.5586 24.7041 60.3467C24.7041 60.1172 24.7627 59.9385 24.8799 59.8105C24.998 59.6816 25.146 59.6172 25.3237 59.6172C25.4741 59.6172 25.5977 59.667 25.6943 59.7666C25.791 59.8652 25.8394 59.9976 25.8394 60.1636H24.9121ZM24.9121 60.0786H25.5332C25.5283 59.9927 25.5181 59.9321 25.5024 59.897C25.478 59.8423 25.4414 59.7993 25.3926 59.7681C25.3447 59.7368 25.2944 59.7212 25.2417 59.7212C25.1606 59.7212 25.0879 59.7529 25.0234 59.8164C24.96 59.8789 24.9229 59.9663 24.9121 60.0786ZM27.168 59.9043C27.2656 59.8066 27.3232 59.7505 27.3408 59.7358C27.3848 59.6987 27.4321 59.6699 27.4829 59.6494C27.5337 59.6289 27.584 59.6187 27.6338 59.6187C27.7178 59.6187 27.79 59.6431 27.8506 59.6919C27.9111 59.7407 27.9517 59.8115 27.9722 59.9043C28.0728 59.7871 28.1577 59.7104 28.2271 59.6743C28.2964 59.6372 28.3677 59.6187 28.4409 59.6187C28.5122 59.6187 28.5752 59.6372 28.6299 59.6743C28.6855 59.7104 28.7295 59.77 28.7617 59.853C28.7832 59.9097 28.7939 59.9985 28.7939 60.1196V60.6968C28.7939 60.7808 28.8003 60.8384 28.813 60.8696C28.8228 60.8911 28.8408 60.9097 28.8672 60.9253C28.8936 60.9399 28.9365 60.9473 28.9961 60.9473V61H28.334V60.9473H28.3618C28.4194 60.9473 28.4644 60.936 28.4966 60.9136C28.519 60.8979 28.5352 60.873 28.5449 60.8389C28.5488 60.8223 28.5508 60.7749 28.5508 60.6968V60.1196C28.5508 60.0103 28.5376 59.9331 28.5112 59.8882C28.4731 59.8257 28.4121 59.7944 28.3281 59.7944C28.2764 59.7944 28.2241 59.8076 28.1714 59.834C28.1196 59.8594 28.0566 59.9072 27.9824 59.9775L27.9795 59.9937L27.9824 60.0566V60.6968C27.9824 60.7886 27.9873 60.8457 27.9971 60.8682C28.0078 60.8906 28.0273 60.9097 28.0557 60.9253C28.084 60.9399 28.1323 60.9473 28.2007 60.9473V61H27.5225V60.9473C27.5967 60.9473 27.6475 60.9385 27.6748 60.9209C27.7031 60.9033 27.7227 60.877 27.7334 60.8418C27.7383 60.8252 27.7407 60.7769 27.7407 60.6968V60.1196C27.7407 60.0103 27.7246 59.9316 27.6924 59.8838C27.6494 59.8213 27.5894 59.79 27.5122 59.79C27.4595 59.79 27.4072 59.8042 27.3555 59.8325C27.2744 59.8755 27.2119 59.9238 27.168 59.9775V60.6968C27.168 60.7847 27.1738 60.8418 27.1855 60.8682C27.1982 60.8945 27.2163 60.9146 27.2397 60.9282C27.2642 60.9409 27.313 60.9473 27.3862 60.9473V61H26.7227V60.9473C26.7842 60.9473 26.8271 60.9409 26.8516 60.9282C26.876 60.9146 26.8945 60.8936 26.9072 60.8652C26.9199 60.8359 26.9263 60.7798 26.9263 60.6968V60.1841C26.9263 60.0366 26.9219 59.9414 26.9131 59.8984C26.9062 59.8662 26.8955 59.8442 26.8809 59.8325C26.8662 59.8198 26.8462 59.8135 26.8208 59.8135C26.7935 59.8135 26.7607 59.8208 26.7227 59.8354L26.7007 59.7827L27.105 59.6187H27.168V59.9043ZM29.8647 60.8066C29.7271 60.9131 29.6406 60.9746 29.6055 60.9912C29.5527 61.0156 29.4966 61.0278 29.437 61.0278C29.3442 61.0278 29.2676 60.9961 29.207 60.9326C29.1475 60.8691 29.1177 60.7856 29.1177 60.6821C29.1177 60.6167 29.1323 60.5601 29.1616 60.5122C29.2017 60.4458 29.271 60.3833 29.3696 60.3247C29.4692 60.2661 29.6343 60.1948 29.8647 60.1108V60.0581C29.8647 59.9243 29.8433 59.8325 29.8003 59.7827C29.7583 59.7329 29.6968 59.708 29.6157 59.708C29.5542 59.708 29.5054 59.7246 29.4692 59.7578C29.4321 59.791 29.4136 59.8291 29.4136 59.8721L29.4165 59.957C29.4165 60.002 29.4048 60.0366 29.3813 60.061C29.3589 60.0854 29.3291 60.0977 29.292 60.0977C29.2559 60.0977 29.2261 60.085 29.2026 60.0596C29.1802 60.0342 29.1689 59.9995 29.1689 59.9556C29.1689 59.8716 29.2119 59.7944 29.2979 59.7241C29.3838 59.6538 29.5044 59.6187 29.6597 59.6187C29.7788 59.6187 29.8765 59.6387 29.9526 59.6787C30.0103 59.709 30.0527 59.7563 30.0801 59.8208C30.0977 59.8628 30.1064 59.9487 30.1064 60.0786V60.5342C30.1064 60.6621 30.1089 60.7407 30.1138 60.77C30.1187 60.7983 30.1265 60.8174 30.1372 60.8271C30.1489 60.8369 30.1621 60.8418 30.1768 60.8418C30.1924 60.8418 30.2061 60.8384 30.2178 60.8315C30.2383 60.8188 30.2778 60.7832 30.3364 60.7246V60.8066C30.2271 60.9531 30.1226 61.0264 30.0229 61.0264C29.9751 61.0264 29.937 61.0098 29.9087 60.9766C29.8804 60.9434 29.8657 60.8867 29.8647 60.8066ZM29.8647 60.7114V60.2002C29.7173 60.2588 29.6221 60.3003 29.5791 60.3247C29.502 60.3677 29.4468 60.4126 29.4136 60.4595C29.3804 60.5063 29.3638 60.5576 29.3638 60.6133C29.3638 60.6836 29.3848 60.7422 29.4268 60.7891C29.4688 60.835 29.5171 60.8579 29.5718 60.8579C29.646 60.8579 29.7437 60.8091 29.8647 60.7114ZM30.8345 58.917V60.2515L31.1758 59.9409C31.248 59.8745 31.29 59.8325 31.3018 59.8149C31.3096 59.8032 31.3135 59.7915 31.3135 59.7798C31.3135 59.7603 31.3052 59.7437 31.2886 59.73C31.2729 59.7153 31.2466 59.707 31.2095 59.7051V59.6582H31.7925V59.7051C31.7124 59.707 31.6455 59.7192 31.5918 59.7417C31.5391 59.7642 31.481 59.8042 31.4175 59.8618L31.0732 60.1797L31.4175 60.6147C31.5132 60.7349 31.5776 60.811 31.6108 60.8433C31.6577 60.8892 31.6987 60.9189 31.7339 60.9326C31.7583 60.9424 31.8008 60.9473 31.8613 60.9473V61H31.2095V60.9473C31.2466 60.9463 31.2715 60.9409 31.2842 60.9312C31.2979 60.9204 31.3047 60.9058 31.3047 60.8872C31.3047 60.8647 31.2852 60.8286 31.2461 60.7788L30.8345 60.2529V60.6982C30.8345 60.7852 30.8403 60.8423 30.8521 60.8696C30.8647 60.897 30.8823 60.9165 30.9048 60.9282C30.9272 60.9399 30.9761 60.9463 31.0513 60.9473V61H30.3687V60.9473C30.437 60.9473 30.4883 60.939 30.5225 60.9224C30.543 60.9116 30.5586 60.895 30.5693 60.8726C30.584 60.8403 30.5913 60.7847 30.5913 60.7056V59.4839C30.5913 59.3286 30.5879 59.2339 30.5811 59.1997C30.5742 59.1646 30.563 59.1406 30.5474 59.1279C30.5317 59.1143 30.5112 59.1074 30.4858 59.1074C30.4653 59.1074 30.4346 59.1157 30.3936 59.1323L30.3687 59.0811L30.7671 58.917H30.8345ZM32.1631 60.1636C32.1621 60.3628 32.2104 60.519 32.3081 60.6323C32.4058 60.7456 32.5205 60.8022 32.6523 60.8022C32.7402 60.8022 32.8164 60.7783 32.8809 60.7305C32.9463 60.6816 33.001 60.5986 33.0449 60.4814L33.0903 60.5107C33.0698 60.6445 33.0103 60.7666 32.9116 60.877C32.813 60.9863 32.6895 61.041 32.541 61.041C32.3799 61.041 32.2417 60.9785 32.1265 60.8535C32.0122 60.7275 31.9551 60.5586 31.9551 60.3467C31.9551 60.1172 32.0137 59.9385 32.1309 59.8105C32.249 59.6816 32.397 59.6172 32.5747 59.6172C32.7251 59.6172 32.8486 59.667 32.9453 59.7666C33.042 59.8652 33.0903 59.9976 33.0903 60.1636H32.1631ZM32.1631 60.0786H32.7842C32.7793 59.9927 32.769 59.9321 32.7534 59.897C32.729 59.8423 32.6924 59.7993 32.6436 59.7681C32.5957 59.7368 32.5454 59.7212 32.4927 59.7212C32.4116 59.7212 32.3389 59.7529 32.2744 59.8164C32.2109 59.8789 32.1738 59.9663 32.1631 60.0786ZM34.9683 60.8491C34.9028 60.9175 34.8389 60.9668 34.7764 60.9971C34.7139 61.0264 34.6465 61.041 34.5742 61.041C34.4277 61.041 34.2998 60.98 34.1904 60.8579C34.0811 60.7349 34.0264 60.5771 34.0264 60.3848C34.0264 60.1924 34.0869 60.0166 34.208 59.8574C34.3291 59.6973 34.4849 59.6172 34.6753 59.6172C34.7935 59.6172 34.8911 59.6548 34.9683 59.73V59.4824C34.9683 59.3291 34.9644 59.2349 34.9565 59.1997C34.9497 59.1646 34.9385 59.1406 34.9229 59.1279C34.9072 59.1152 34.8877 59.1089 34.8643 59.1089C34.8389 59.1089 34.8052 59.1167 34.7632 59.1323L34.7441 59.0811L35.144 58.917H35.21V60.4683C35.21 60.6255 35.2134 60.7217 35.2202 60.7568C35.228 60.791 35.2397 60.8149 35.2554 60.8286C35.272 60.8423 35.291 60.8491 35.3125 60.8491C35.3389 60.8491 35.374 60.8408 35.418 60.8242L35.4341 60.8755L35.0356 61.041H34.9683V60.8491ZM34.9683 60.7466V60.0552C34.9624 59.9888 34.9448 59.9282 34.9155 59.8735C34.8862 59.8188 34.8472 59.7778 34.7983 59.7505C34.7505 59.7222 34.7036 59.708 34.6577 59.708C34.5718 59.708 34.4951 59.7466 34.4277 59.8237C34.3389 59.9253 34.2944 60.0737 34.2944 60.269C34.2944 60.4663 34.3374 60.6177 34.4233 60.7231C34.5093 60.8276 34.605 60.8799 34.7104 60.8799C34.7993 60.8799 34.8853 60.8354 34.9683 60.7466ZM35.7461 60.1636C35.7451 60.3628 35.7935 60.519 35.8911 60.6323C35.9888 60.7456 36.1035 60.8022 36.2354 60.8022C36.3232 60.8022 36.3994 60.7783 36.4639 60.7305C36.5293 60.6816 36.584 60.5986 36.6279 60.4814L36.6733 60.5107C36.6528 60.6445 36.5933 60.7666 36.4946 60.877C36.396 60.9863 36.2725 61.041 36.124 61.041C35.9629 61.041 35.8247 60.9785 35.7095 60.8535C35.5952 60.7275 35.5381 60.5586 35.5381 60.3467C35.5381 60.1172 35.5967 59.9385 35.7139 59.8105C35.832 59.6816 35.98 59.6172 36.1577 59.6172C36.3081 59.6172 36.4316 59.667 36.5283 59.7666C36.625 59.8652 36.6733 59.9976 36.6733 60.1636H35.7461ZM35.7461 60.0786H36.3672C36.3623 59.9927 36.3521 59.9321 36.3364 59.897C36.312 59.8423 36.2754 59.7993 36.2266 59.7681C36.1787 59.7368 36.1284 59.7212 36.0757 59.7212C35.9946 59.7212 35.9219 59.7529 35.8574 59.8164C35.7939 59.8789 35.7568 59.9663 35.7461 60.0786ZM37.7207 59.6187V60.0757H37.6724C37.6353 59.9321 37.5874 59.8345 37.5288 59.7827C37.4712 59.731 37.3975 59.7051 37.3076 59.7051C37.2393 59.7051 37.1841 59.7231 37.1421 59.7593C37.1001 59.7954 37.0791 59.8354 37.0791 59.8794C37.0791 59.9341 37.0947 59.981 37.126 60.02C37.1562 60.0601 37.2178 60.1025 37.3105 60.1475L37.5244 60.2515C37.7227 60.3481 37.8218 60.4756 37.8218 60.6338C37.8218 60.7559 37.7754 60.8545 37.6826 60.9297C37.5908 61.0039 37.4878 61.041 37.3735 61.041C37.2915 61.041 37.1978 61.0264 37.0923 60.9971C37.0601 60.9873 37.0337 60.9824 37.0132 60.9824C36.9907 60.9824 36.9731 60.9951 36.9604 61.0205H36.9121V60.5415H36.9604C36.9878 60.6782 37.04 60.7812 37.1172 60.8506C37.1943 60.9199 37.2808 60.9546 37.3765 60.9546C37.4438 60.9546 37.4985 60.9351 37.5405 60.896C37.5835 60.856 37.605 60.8081 37.605 60.7524C37.605 60.6851 37.5811 60.6284 37.5332 60.5825C37.4863 60.5366 37.3921 60.4785 37.2505 60.4082C37.1089 60.3379 37.0161 60.2744 36.9722 60.2178C36.9282 60.1621 36.9062 60.0918 36.9062 60.0068C36.9062 59.8965 36.9438 59.8042 37.019 59.73C37.0952 59.6558 37.1934 59.6187 37.3135 59.6187C37.3662 59.6187 37.4302 59.6299 37.5054 59.6523C37.5552 59.667 37.5884 59.6743 37.605 59.6743C37.6206 59.6743 37.6328 59.6709 37.6416 59.6641C37.6504 59.6572 37.6606 59.6421 37.6724 59.6187H37.7207ZM38.3638 58.917C38.4048 58.917 38.4395 58.9316 38.4678 58.9609C38.4971 58.9893 38.5117 59.0239 38.5117 59.0649C38.5117 59.106 38.4971 59.1411 38.4678 59.1704C38.4395 59.1997 38.4048 59.2144 38.3638 59.2144C38.3228 59.2144 38.2876 59.1997 38.2583 59.1704C38.229 59.1411 38.2144 59.106 38.2144 59.0649C38.2144 59.0239 38.2285 58.9893 38.2568 58.9609C38.2861 58.9316 38.3218 58.917 38.3638 58.917ZM38.4854 59.6187V60.6968C38.4854 60.7808 38.4912 60.8369 38.5029 60.8652C38.5156 60.8926 38.5337 60.9131 38.5571 60.9268C38.5815 60.9404 38.6255 60.9473 38.689 60.9473V61H38.0371V60.9473C38.1025 60.9473 38.1465 60.9409 38.1689 60.9282C38.1914 60.9155 38.209 60.8945 38.2217 60.8652C38.2354 60.8359 38.2422 60.7798 38.2422 60.6968V60.1797C38.2422 60.0342 38.2378 59.9399 38.229 59.897C38.2222 59.8657 38.2114 59.8442 38.1968 59.8325C38.1821 59.8198 38.1621 59.8135 38.1367 59.8135C38.1094 59.8135 38.0762 59.8208 38.0371 59.8354L38.0166 59.7827L38.4209 59.6187H38.4854ZM39.2163 60.5107C39.1343 60.4707 39.0713 60.415 39.0273 60.3438C38.9834 60.2715 38.9614 60.1919 38.9614 60.105C38.9614 59.9722 39.0112 59.8579 39.1108 59.7622C39.2114 59.6665 39.3398 59.6187 39.4961 59.6187C39.624 59.6187 39.7349 59.6499 39.8286 59.7124H40.1128C40.1548 59.7124 40.1792 59.7139 40.186 59.7168C40.1929 59.7188 40.1978 59.7227 40.2007 59.7285C40.2065 59.7373 40.2095 59.7529 40.2095 59.7754C40.2095 59.8008 40.207 59.8184 40.2021 59.8281C40.1992 59.833 40.1938 59.8369 40.186 59.8398C40.1792 59.8428 40.1548 59.8442 40.1128 59.8442H39.9385C39.9932 59.9146 40.0205 60.0044 40.0205 60.1138C40.0205 60.2388 39.9727 60.3457 39.877 60.4346C39.7812 60.5234 39.6528 60.5679 39.4917 60.5679C39.4253 60.5679 39.3574 60.5581 39.2881 60.5386C39.2451 60.5757 39.2158 60.6084 39.2002 60.6367C39.1855 60.6641 39.1782 60.6875 39.1782 60.707C39.1782 60.7236 39.186 60.7397 39.2017 60.7554C39.2183 60.771 39.25 60.7822 39.2969 60.7891C39.3242 60.793 39.3926 60.7964 39.502 60.7993C39.7031 60.8042 39.8335 60.811 39.8931 60.8198C39.9839 60.8325 40.0562 60.8662 40.1099 60.9209C40.1646 60.9756 40.1919 61.043 40.1919 61.123C40.1919 61.2334 40.1401 61.3369 40.0366 61.4336C39.8843 61.5762 39.6855 61.6475 39.4404 61.6475C39.252 61.6475 39.0928 61.605 38.9629 61.52C38.8896 61.4712 38.853 61.4204 38.853 61.3677C38.853 61.3442 38.8584 61.3208 38.8691 61.2974C38.8857 61.2612 38.9199 61.2109 38.9717 61.1465C38.9785 61.1377 39.0283 61.085 39.1211 60.9883C39.0703 60.958 39.0342 60.9312 39.0127 60.9077C38.9922 60.8833 38.9819 60.856 38.9819 60.8257C38.9819 60.7915 38.9956 60.7515 39.0229 60.7056C39.0513 60.6597 39.1157 60.5947 39.2163 60.5107ZM39.4712 59.689C39.3989 59.689 39.3384 59.7178 39.2896 59.7754C39.2407 59.833 39.2163 59.9214 39.2163 60.0405C39.2163 60.1948 39.2495 60.3145 39.3159 60.3994C39.3667 60.4639 39.4312 60.4961 39.5093 60.4961C39.5835 60.4961 39.6445 60.4683 39.6924 60.4126C39.7402 60.3569 39.7642 60.2695 39.7642 60.1504C39.7642 59.9951 39.7305 59.8735 39.6631 59.7856C39.6133 59.7212 39.5493 59.689 39.4712 59.689ZM39.2017 61C39.1558 61.0498 39.1211 61.0962 39.0977 61.1392C39.0742 61.1821 39.0625 61.2217 39.0625 61.2578C39.0625 61.3047 39.0908 61.3457 39.1475 61.3809C39.2451 61.4414 39.3862 61.4717 39.5708 61.4717C39.7466 61.4717 39.876 61.4404 39.959 61.3779C40.043 61.3164 40.085 61.2505 40.085 61.1802C40.085 61.1294 40.0601 61.0933 40.0103 61.0718C39.9595 61.0503 39.8589 61.0376 39.7085 61.0337C39.4888 61.0278 39.3198 61.0166 39.2017 61ZM40.7485 59.9028C40.9058 59.7134 41.0557 59.6187 41.1982 59.6187C41.2715 59.6187 41.3345 59.6372 41.3872 59.6743C41.4399 59.7104 41.4819 59.7705 41.5132 59.8545C41.5347 59.9131 41.5454 60.0029 41.5454 60.124V60.6968C41.5454 60.7817 41.5522 60.8394 41.5659 60.8696C41.5767 60.894 41.5938 60.9131 41.6172 60.9268C41.6416 60.9404 41.686 60.9473 41.7505 60.9473V61H41.0869V60.9473H41.1147C41.1772 60.9473 41.2207 60.938 41.2451 60.9194C41.2705 60.8999 41.2881 60.8716 41.2979 60.8345C41.3018 60.8198 41.3037 60.7739 41.3037 60.6968V60.1475C41.3037 60.0254 41.2876 59.937 41.2554 59.8823C41.2241 59.8267 41.1709 59.7988 41.0957 59.7988C40.9795 59.7988 40.8638 59.8623 40.7485 59.9893V60.6968C40.7485 60.7876 40.7539 60.8438 40.7646 60.8652C40.7783 60.8936 40.7969 60.9146 40.8203 60.9282C40.8447 60.9409 40.8936 60.9473 40.9668 60.9473V61H40.3032V60.9473H40.3325C40.4009 60.9473 40.4468 60.9302 40.4702 60.896C40.4946 60.8608 40.5068 60.7944 40.5068 60.6968V60.1987C40.5068 60.0376 40.5029 59.9395 40.4951 59.9043C40.4883 59.8691 40.4771 59.8452 40.4614 59.8325C40.4468 59.8198 40.4268 59.8135 40.4014 59.8135C40.374 59.8135 40.3413 59.8208 40.3032 59.8354L40.2812 59.7827L40.6855 59.6187H40.7485V59.9028Z" fill="#858585"/>
</svg>
